<svg width="39" height="38" viewBox="0 0 39 38" fill="none" xmlns="http://www.w3.org/2000/svg">
<circle cx="19.3181" cy="18.9026" r="18.4026" fill="#F67C01" stroke="#F67C01"/>
<g clip-path="url(#clip0_5549_76)">
<path d="M22.7254 21.7254H22.0093V21.2951C22.0093 21.0656 22.1239 20.9508 22.353 20.9508H22.3817C22.6108 20.9508 22.7254 21.0656 22.7254 21.2951V21.7254ZM20.0041 20.8074C19.7749 20.8074 19.6603 20.903 19.6603 21.0943V23.1311C19.6603 23.3224 19.7749 23.418 20.0041 23.418C20.2332 23.418 20.3478 23.3224 20.3478 23.1311V21.0943C20.3478 20.903 20.2332 20.8074 20.0041 20.8074ZM24.4155 19.6598V23.5615C24.4155 24.0396 24.2389 24.4413 23.8856 24.7664C23.5323 25.0915 23.1074 25.2541 22.6108 25.2541H15.2202C14.7237 25.2541 14.2988 25.0915 13.9455 24.7664C13.5922 24.4413 13.4155 24.0396 13.4155 23.5615V19.6598C13.4155 19.2008 13.5922 18.804 13.9455 18.4693C14.2988 18.1346 14.7237 17.9672 15.2202 17.9672H22.6108C23.1074 17.9672 23.5323 18.1346 23.8856 18.4693C24.2389 18.804 24.4155 19.2008 24.4155 19.6598ZM15.7072 23.9918V19.8893H16.6239V19.2869L14.189 19.2582V19.8607H14.9338V23.9918H15.7072ZM18.4572 20.4918H17.6838V23.2172C17.6456 23.3128 17.5787 23.375 17.4832 23.4037C17.3877 23.4324 17.3114 23.3798 17.2541 23.2459V22.7008L17.2254 20.4918H16.4806V23.3607C16.5188 23.6858 16.5857 23.877 16.6812 23.9344C16.853 24.0492 17.0679 24.054 17.3257 23.9488C17.5835 23.8436 17.7601 23.7049 17.8556 23.5328V23.9918H18.4572V20.4918ZM20.8921 23.0164V21.1803C20.8921 20.8169 20.7775 20.5683 20.5483 20.4344C20.3192 20.3005 20.0327 20.3675 19.689 20.6352V19.2869H18.9155V23.9631H19.5457L19.603 23.6475C20.0041 23.9918 20.3239 24.0874 20.5627 23.9344C20.8014 23.7814 20.9112 23.4754 20.8921 23.0164ZM23.2983 22.7582H22.7254V23.1598C22.7254 23.3702 22.6204 23.4754 22.4103 23.4754H22.2957C22.0857 23.4754 21.9806 23.3702 21.9806 23.1598V22.3279H23.2983V21.8402C23.2983 21.3429 23.2888 21.0273 23.2697 20.8934C23.2124 20.5874 23.0071 20.3962 22.6538 20.3197C22.3005 20.2432 22.0093 20.291 21.7801 20.4631C21.6273 20.597 21.5223 20.7404 21.465 20.8934C21.4077 21.0847 21.3791 21.3429 21.3791 21.668V22.7582C21.3791 23.4658 21.6464 23.877 22.1812 23.9918C22.6395 24.0874 22.9737 23.9344 23.1838 23.5328C23.3174 23.3224 23.3556 23.0642 23.2983 22.7582ZM20.3478 16.8484C20.386 16.944 20.4529 17.0205 20.5483 17.0779C20.6247 17.1352 20.7298 17.1639 20.8634 17.1639C20.978 17.1639 21.0735 17.1352 21.1499 17.0779C21.2263 17.0205 21.2931 16.9344 21.3504 16.8197V17.1066H22.2098V13.4631H21.5223V16.3033C21.5223 16.4945 21.4268 16.5902 21.2358 16.5902C21.064 16.5902 20.978 16.4945 20.978 16.3033V13.4631H20.2619V15.9303C20.2619 16.2746 20.2714 16.485 20.2905 16.5615C20.2905 16.638 20.3096 16.7336 20.3478 16.8484ZM17.7697 14.8115C17.7697 14.4672 17.7983 14.1899 17.8556 13.9795C17.9129 13.8074 18.018 13.6544 18.1707 13.5205C18.3235 13.4057 18.5145 13.3484 18.7437 13.3484C18.9537 13.3484 19.1256 13.3866 19.2593 13.4631C19.393 13.5205 19.498 13.6161 19.5744 13.75C19.6508 13.8456 19.7081 13.9699 19.7463 14.1229C19.7654 14.2186 19.7749 14.4194 19.7749 14.7254V15.6434C19.7749 16.026 19.7654 16.2746 19.7463 16.3893C19.7272 16.5232 19.6699 16.6667 19.5744 16.8197C19.5171 16.9153 19.4121 17.0205 19.2593 17.1352C19.1065 17.1926 18.9537 17.2213 18.8009 17.2213C18.61 17.2213 18.4381 17.1926 18.2853 17.1352C18.1516 17.0779 18.0466 16.9918 17.9702 16.877C17.8938 16.724 17.8461 16.5902 17.827 16.4754C17.7888 16.2841 17.7697 16.0451 17.7697 15.7582V14.8115ZM18.4285 16.2459C18.4285 16.3415 18.462 16.4276 18.5288 16.5041C18.5956 16.5806 18.6768 16.6188 18.7723 16.6188C19.0015 16.6188 19.116 16.4945 19.116 16.2459V14.3238C19.116 14.0751 19.0015 13.9508 18.7723 13.9508C18.5431 13.9508 18.4285 14.0751 18.4285 14.3238V16.2459ZM16.0796 17.2213H16.8817V14.4385L17.827 12.0574H16.9676L16.452 13.8361L15.9364 12.0574H15.077L16.0796 14.4385V17.2213Z" fill="white"/>
</g>
<defs>
<clipPath id="clip0_5549_76">
<rect width="11" height="14" fill="white" transform="translate(13.4155 12)"/>
</clipPath>
</defs>
</svg>
