<svg width="39" height="38" viewBox="0 0 39 38" fill="none" xmlns="http://www.w3.org/2000/svg">
<circle cx="19.7078" cy="18.9026" r="18.4026" fill="#F67C01" stroke="#F67C01"/>
<path d="M25.7143 14.3018C25.2391 14.5296 24.727 14.6793 24.1963 14.7509C24.7393 14.4059 25.1589 13.8592 25.3564 13.2018C24.8442 13.5272 24.2765 13.755 23.6779 13.8852C23.1905 13.3254 22.5055 13 21.728 13C20.2779 13 19.0931 14.2497 19.0931 15.7923C19.0931 16.0136 19.1178 16.2284 19.161 16.4301C16.9642 16.313 15.0081 15.2 13.7061 13.5142C13.4778 13.9242 13.3482 14.4059 13.3482 14.9136C13.3482 15.8834 13.811 16.7426 14.5268 17.2307C14.0887 17.2307 13.6814 17.1005 13.3235 16.9053V16.9248C13.3235 18.2786 14.2368 19.4112 15.4462 19.665C15.0579 19.7771 14.6503 19.7927 14.2553 19.7106C14.4229 20.2654 14.7511 20.7509 15.1939 21.0988C15.6366 21.4467 16.1716 21.6396 16.7236 21.6502C15.7879 22.4315 14.628 22.8539 13.4346 22.8478C13.2248 22.8478 13.015 22.8348 12.8052 22.8087C13.9776 23.6028 15.3722 24.0649 16.8655 24.0649C21.728 24.0649 24.3999 19.8082 24.3999 16.1177C24.3999 15.994 24.3999 15.8769 24.3937 15.7532C24.9121 15.3627 25.3564 14.868 25.7143 14.3018Z" fill="white"/>
</svg>
